<svg width="69" height="69" viewBox="0 0 69 69" fill="none" xmlns="http://www.w3.org/2000/svg">
<path fill-rule="evenodd" clip-rule="evenodd" d="M34.5 23C28.1487 23 23 28.1487 23 34.4999C23 40.8514 28.1487 45.9999 34.5 45.9999C40.8512 45.9999 46 40.8514 46 34.4999C46 28.1487 40.8512 23 34.5 23ZM28.75 34.4999C28.75 31.3245 31.3243 28.7499 34.5 28.7499C37.6758 28.7499 40.25 31.3245 40.25 34.4999C40.25 37.6757 37.6758 40.2499 34.5 40.2499C31.3243 40.2499 28.75 37.6757 28.75 34.4999Z" fill="white"/>
<path fill-rule="evenodd" clip-rule="evenodd" d="M34.5 23C28.1487 23 23 28.1487 23 34.4999C23 40.8514 28.1487 45.9999 34.5 45.9999C40.8512 45.9999 46 40.8514 46 34.4999C46 28.1487 40.8512 23 34.5 23ZM28.75 34.4999C28.75 31.3245 31.3243 28.7499 34.5 28.7499C37.6758 28.7499 40.25 31.3245 40.25 34.4999C40.25 37.6757 37.6758 40.2499 34.5 40.2499C31.3243 40.2499 28.75 37.6757 28.75 34.4999Z" fill="white"/>
<path fill-rule="evenodd" clip-rule="evenodd" d="M30.9559 2.92414C31.6034 2.87451 32.3305 2.8748 32.9233 2.87503H36.0766C36.6694 2.8748 37.3965 2.87451 38.044 2.92414C38.8093 2.98279 39.8699 3.13191 41.0072 3.64944C42.445 4.30356 43.6755 5.33991 44.5645 6.64548C45.268 7.67841 45.5952 8.69832 45.7832 9.44237C45.9422 10.0721 46.0655 10.7884 46.1658 11.3726L46.5729 13.732L46.581 13.7364C46.681 13.7917 46.7805 13.8477 46.8797 13.9044L46.8872 13.9085L49.5808 12.9336C50.1273 12.7356 50.7992 12.4921 51.415 12.3206C52.1441 12.1176 53.1742 11.8993 54.3996 11.9895C55.9515 12.1037 57.4433 12.6355 58.7175 13.5287C59.7235 14.234 60.3833 15.0545 60.8194 15.6731C61.1883 16.1956 61.5546 16.8093 61.8527 17.3083L63.2954 19.7226C63.6111 20.2499 63.9957 20.893 64.2927 21.4914C64.6423 22.1959 65.0693 23.2149 65.1983 24.4969C65.3605 26.1114 65.0644 27.7389 64.3433 29.1925C63.7706 30.3468 63.0116 31.1498 62.436 31.686C61.9473 32.1411 61.3605 32.6074 60.8795 32.9895L58.9375 34.5L60.8795 36.0105C61.3605 36.3929 61.9473 36.8589 62.436 37.3143C63.0116 37.8502 63.7706 38.6532 64.343 39.8075C65.0641 41.2611 65.3605 42.8887 65.1981 44.5033C65.0693 45.7852 64.642 46.8041 64.2924 47.5088C63.9954 48.1071 63.6108 48.7502 63.2954 49.2775L61.8521 51.6922C61.5543 52.1913 61.188 52.8046 60.8194 53.3269C60.383 53.9456 59.7235 54.7662 58.7172 55.4714C57.4433 56.3647 55.9512 56.8965 54.3996 57.0107C53.1742 57.1009 52.1441 56.8824 51.415 56.6795C50.7989 56.5078 50.127 56.2646 49.5805 56.0665L46.8869 55.0916L46.8797 55.0959C46.7805 55.1526 46.681 55.2083 46.581 55.2638L46.5729 55.2681L46.1658 57.6274C46.0655 58.2116 45.9422 58.928 45.7832 59.5576C45.5952 60.3017 45.268 61.3217 44.5645 62.3547C43.6755 63.6603 42.445 64.6967 41.0072 65.3508C39.8699 65.8683 38.8093 66.0175 38.044 66.0761C37.3962 66.1256 36.6694 66.1253 36.0766 66.125H32.9233C32.3305 66.1253 31.6034 66.1256 30.9559 66.0761C30.1906 66.0175 29.13 65.8683 27.9925 65.3508C26.5548 64.6967 25.3244 63.6603 24.4353 62.3547C23.732 61.3217 23.4047 60.3017 23.2168 59.5576C23.0578 58.928 22.9345 58.2116 22.8339 57.6274L22.4269 55.2681L22.419 55.2638C22.3189 55.2083 22.2193 55.1526 22.1201 55.0956L22.1128 55.0916L19.4194 56.0665C18.8729 56.2643 18.201 56.5078 17.5849 56.6795C16.8557 56.8824 15.8258 57.1007 14.6004 57.0107C13.0486 56.8965 11.5566 56.3647 10.2825 55.4714C9.27643 54.7662 8.61674 53.9456 8.18046 53.3269C7.81185 52.8046 7.44546 52.191 7.1475 51.6919L5.70448 49.2775C5.38906 48.7502 5.00439 48.1071 4.7074 47.5088C4.35774 46.8041 3.93063 45.7852 3.80172 44.5033C3.63936 42.8887 3.93575 41.2611 4.65677 39.8075C5.22935 38.6532 5.98827 37.8502 6.56382 37.3143C7.05268 36.8589 7.63932 36.3929 8.12037 36.0105L10.0005 34.5155V34.4848L8.12025 32.9895C7.63918 32.6074 7.05257 32.1411 6.5637 31.686C5.98815 31.1498 5.22924 30.3468 4.65665 29.1925C3.93563 27.7389 3.63925 26.1114 3.80157 24.497C3.93049 23.2149 4.35763 22.1959 4.70725 21.4914C5.00424 20.8931 5.38895 20.25 5.70436 19.7226L7.14735 17.3082C7.44532 16.8092 7.81174 16.1956 8.18031 15.6731C8.61662 15.0546 9.27629 14.234 10.2824 13.5287C11.5565 12.6356 13.0485 12.1037 14.6003 11.9895C15.8256 11.8993 16.8556 12.1176 17.5848 12.3206C18.2008 12.4922 18.8727 12.7357 19.4192 12.9337L22.1128 13.9085L22.12 13.9044C22.2192 13.8477 22.3189 13.7917 22.419 13.7364L22.4269 13.732L22.8339 11.3727C22.9345 10.7884 23.0578 10.0721 23.2168 9.44237C23.4047 8.69832 23.732 7.67841 24.4353 6.64548C25.3244 5.33991 26.5548 4.30356 27.9925 3.64944C29.13 3.13191 30.1906 2.98279 30.9559 2.92414ZM40.5196 12.4669C40.2816 11.087 40.1626 10.3971 39.8118 9.88187C39.5154 9.44668 39.1054 9.10122 38.6262 8.88318C38.0586 8.62506 37.3586 8.62506 35.9584 8.62506H33.0415C31.6413 8.62506 30.941 8.62506 30.3738 8.88318C29.8945 9.10122 29.4845 9.44668 29.1881 9.88187C28.8374 10.3971 28.7182 11.087 28.4801 12.4669L28.0316 15.0668C27.8715 15.9946 27.7915 16.4584 27.622 16.815C27.4555 17.1651 27.3194 17.3565 27.0432 17.6285C26.762 17.9056 26.2416 18.1933 25.2009 18.7686C25.1241 18.8111 25.0477 18.854 24.9717 18.8974C23.9762 19.466 23.4784 19.7503 23.1088 19.8465C22.7458 19.9411 22.5196 19.9605 22.1458 19.9294C21.7651 19.8977 21.3387 19.7434 20.4858 19.4347L17.5718 18.3801C16.2803 17.9127 15.6345 17.679 15.0223 17.724C14.505 17.7621 14.0077 17.9394 13.583 18.2371C13.0803 18.5894 12.728 19.179 12.0234 20.358L10.7027 22.5677C9.95879 23.8125 9.58682 24.4348 9.52274 25.0722C9.46863 25.6104 9.56741 26.1529 9.80776 26.6374C10.0924 27.2113 10.6599 27.6626 11.7948 28.5651L13.8789 30.2226C14.6029 30.7982 14.9649 31.0862 15.1918 31.3947C15.4371 31.7285 15.5417 31.9453 15.6501 32.3449C15.7505 32.7146 15.7505 33.3098 15.7505 34.5C15.7505 35.6903 15.7505 36.2854 15.6501 36.6554C15.5417 37.055 15.4371 37.2718 15.1918 37.6053C14.9649 37.9141 14.6029 38.2018 13.8788 38.7777L11.795 40.4349C10.66 41.3376 10.0926 41.7887 9.80788 42.3628C9.56753 42.8473 9.46874 43.3898 9.52285 43.928C9.58696 44.5654 9.9589 45.1875 10.7028 46.4324L12.0235 48.6421C12.7282 49.8212 13.0805 50.4108 13.5831 50.763C14.0078 51.0609 14.5051 51.238 15.0224 51.2762C15.6346 51.321 16.2804 51.0873 17.5719 50.6201L20.4859 49.5656C21.3387 49.2568 21.7651 49.1024 22.1458 49.0708C22.5197 49.0397 22.7458 49.059 23.1088 49.1536C23.4785 49.2499 23.9762 49.5342 24.9717 50.1026C25.0478 50.146 25.1242 50.1892 25.2009 50.2314C26.2416 50.8067 26.762 51.0945 27.0432 51.3717C27.3194 51.6436 27.4555 51.8351 27.622 52.1853C27.7915 52.5418 27.8715 53.0055 28.0316 53.9333L28.4801 56.5331C28.7182 57.9131 28.8374 58.6031 29.1881 59.1183C29.4845 59.5533 29.8945 59.8989 30.3738 60.1168C30.941 60.375 31.6413 60.375 33.0415 60.375H35.9584C37.3586 60.375 38.0586 60.375 38.6262 60.1168C39.1054 59.8989 39.5154 59.5533 39.8118 59.1183C40.1626 58.6031 40.2816 57.9131 40.5196 56.5331L40.9684 53.9333C41.1283 53.0055 41.2085 52.5418 41.3778 52.1853C41.5443 51.8351 41.6806 51.6436 41.9566 51.3717C42.238 51.0945 42.7584 50.8067 43.7989 50.2314C43.8756 50.1892 43.9521 50.146 44.028 50.1026C45.0236 49.5342 45.5213 49.2499 45.891 49.1536C46.2541 49.059 46.4801 49.0397 46.8541 49.0708C47.2348 49.1024 47.6611 49.2568 48.5139 49.5656L51.428 50.6201C52.7194 51.0876 53.3654 51.3213 53.9775 51.2762C54.4947 51.238 54.9921 51.0609 55.4167 50.763C55.9193 50.4108 56.2718 49.8212 56.9764 48.6421L58.2972 46.4324C59.041 45.1878 59.413 44.5654 59.4771 43.928C59.5311 43.3898 59.4322 42.8473 59.1919 42.3628C58.9073 41.789 58.3397 41.3376 57.205 40.4349L55.1212 38.7777C54.397 38.2018 54.035 37.9141 53.8082 37.6053C53.5629 37.2718 53.4583 37.055 53.3496 36.6554C53.2493 36.2857 53.2493 35.6903 53.2493 34.5C53.2493 33.3098 53.2493 32.7146 53.3496 32.3449C53.4583 31.9453 53.5629 31.7285 53.8082 31.3947C54.035 31.0862 54.397 30.7982 55.1209 30.2226L57.205 28.5651C58.34 27.6626 58.9076 27.2113 59.1922 26.6374C59.4325 26.1528 59.5311 25.6104 59.4771 25.0722C59.413 24.4348 59.0412 23.8124 58.2972 22.5677L56.9764 20.3579C56.2718 19.1789 55.9196 18.5894 55.417 18.237C54.9921 17.9393 54.495 17.762 53.9775 17.724C53.3654 17.6789 52.7197 17.9126 51.428 18.3801L48.5141 19.4347C47.6611 19.7433 47.2348 19.8977 46.8541 19.9294C46.4801 19.9605 46.2541 19.941 45.891 19.8465C45.5213 19.7502 45.0236 19.466 44.0283 18.8974C43.9521 18.854 43.8756 18.8111 43.7991 18.7686C42.7584 18.1933 42.238 17.9056 41.9566 17.6285C41.6806 17.3565 41.5443 17.1651 41.3778 16.815C41.2085 16.4584 41.1283 15.9945 40.9684 15.0668L40.5196 12.4669Z" fill="white"/>
</svg>
