<svg width="37" height="39" viewBox="0 0 37 39" fill="none" xmlns="http://www.w3.org/2000/svg">
<path fill-rule="evenodd" clip-rule="evenodd" d="M12.3333 0C11.866 0 11.4179 0.186774 11.0875 0.519214L0.516044 11.1556C0.185634 11.488 0 11.9389 0 12.4091V33.6818C0 36.619 2.3665 39 5.28571 39H19.381C20.3541 39 21.1429 38.2063 21.1429 37.2273C21.1429 36.2482 20.3541 35.4545 19.381 35.4545H5.28571C4.31265 35.4545 3.52381 34.6609 3.52381 33.6818V14.1818H12.3333C13.3064 14.1818 14.0952 13.3881 14.0952 12.4091V3.54545H26.4286C27.4017 3.54545 28.1905 4.33914 28.1905 5.31818V12.4091C28.1905 13.3881 28.9793 14.1818 29.9524 14.1818C30.9255 14.1818 31.7143 13.3881 31.7143 12.4091V5.31818C31.7143 2.38104 29.3479 0 26.4286 0H12.3333ZM10.5714 10.6364H6.01551L10.5714 6.05246V10.6364ZM29.9524 19.5C29.9524 18.5209 29.1636 17.7273 28.1905 17.7273C27.2174 17.7273 26.4286 18.5209 26.4286 19.5V24.8182H21.1429C20.1698 24.8182 19.381 25.6118 19.381 26.5909C19.381 27.57 20.1698 28.3636 21.1429 28.3636H26.4286V33.6818C26.4286 34.6609 27.2174 35.4545 28.1905 35.4545C29.1636 35.4545 29.9524 34.6609 29.9524 33.6818V28.3636H35.2381C36.2112 28.3636 37 27.57 37 26.5909C37 25.6118 36.2112 24.8182 35.2381 24.8182H29.9524V19.5Z" fill="black"/>
</svg>
